# xmcd
#
# Track frame offsets:
#	150
#	19392
#	43085
#	66618
#	85864
#	105269
#	126460
#	147778
#	170363
#	187442
#	207560
#
# Disc length: 3115 seconds
#
# Revision: 1
# Processed by: cddbd v1.5.2PL0 Copyright (c) Steve Scherf et al.
# Submitted via: audiograbber 1.83.01
#
DISCID=ab0c290b
DTITLE=Dennis Schütze - Unsung Songs
DYEAR=2014
DGENRE=Country
TTITLE0=Bittersweet
TTITLE1=Black as the devil
TTITLE2=Spiritual Journey
TTITLE3=Every now and then
TTITLE4=Remember Forget
TTITLE5=Sweet Marie
TTITLE6=Unsung Songs
TTITLE7=Dancer
TTITLE8=Down to the Levee
TTITLE9=Good time coming
TTITLE10=Spiritual Journey (Reprise)
EXTD=
EXTT0=
EXTT1=
EXTT2=
EXTT3=
EXTT4=
EXTT5=
EXTT6=
EXTT7=
EXTT8=
EXTT9=
EXTT10=
PLAYORDER=
